<?xml version="1.0"?>
<svg xmlns="http://www.w3.org/2000/svg" height="512px" viewBox="0 -3 496.30833 496" width="512px"><g><path d="m125.003906 268.113281c-5.523437 0-10 4.480469-10 10v3.96875c0 3.3125-2.6875 6-6 6-3.316406 0-6-2.6875-6-6v-3.96875c0-5.519531-4.480468-10-10-10-5.523437 0-10 4.480469-10 10v3.96875c0 14.359375 11.640625 26 26 26s26-11.640625 26-26v-3.96875c0-5.519531-4.480468-10-10-10zm0 0" data-original="#000000" class="active-path" data-old_color="#0080ff" fill="#0080ff"/><path d="m188.003906 307.941406c14.300782-.003906 25.917969-11.558594 26-25.859375v-3.96875c0-5.519531-4.480468-10-10-10-5.523437 0-10 4.480469-10 10v3.96875c0 3.3125-2.6875 6-6 6-3.316406 0-6-2.6875-6-6v-3.96875c0-5.519531-4.480468-10-10-10-5.523437 0-10 4.480469-10 10v3.96875c.082032 14.300781 11.695313 25.855469 26 25.859375zm0 0" data-original="#000000" class="active-path" data-old_color="#0080ff" fill="#0080ff"/><path d="m414.222656 410.464844h-18.976562l-.367188-1.859375c24.011719-12.878907 39.03125-37.878907 39.125-65.125v-54.015625h4.976563c5.40625.113281 9.882812-4.175782 10-9.585938 0-.054687 0-.113281 0-.167968-.054688-29.460938-23.980469-53.300782-53.441407-53.246094h-44.820312c-9.890625-.082032-19.246094 4.484375-25.265625 12.332031-27.230469 2.621094-37.699219 26.386719-39.5 39.46875-.015625.421875.003906.839844.050781 1.257813v63.957031c-.03125 28.136719 15.917969 53.851562 41.136719 66.328125l-.351563.65625h-43.308593c-13.808594-16.496094-34.222657-26.019532-55.734375-26h-36l-1.6875-7.632813c37.09375-16.5 60.980468-53.304687 60.945312-93.898437v-30.769532c4.511719 1.171876 9.15625 1.785157 13.820313 1.820313 3.335937 0 6.664062-.3125 9.945312-.925781 21.355469-4.015625 38.011719-20.804688 41.851563-42.191406 3.839844-21.386719-5.933594-42.921876-24.558594-54.113282s-42.230469-9.710937-59.308594 3.71875c-19.152344-27.5-50.539062-43.898437-84.050781-43.910156-56.757813-.007812-102.699219 46.167969-102.699219 102.925781v63.441407c-.046875 42.015624 25.515625 79.820312 64.523438 95.433593l-1.5 6.101563h-35.855469c-40.511719 0-73.16796875 33.273437-73.16796875 73.789062v22.519532c-.11718725 5.234374 4.03124975 9.574218 9.26953175 9.691406h.421874 448.214844c5.421875.152344 9.941406-4.121094 10.09375-9.542969v-16.78125c-.078125-29.652344-24.128906-53.65625-53.78125-53.675781zm-130.871094-235.5625c14.757813 10.058594 18.566407 30.175781 8.507813 44.933594-4.894531 7.117187-12.414063 11.996093-20.910156 13.5625-6.773438 1.28125-12.945313.390624-19.945313-2.492188v-11.417969c.082032-14.183593-2.789062-28.226562-8.429687-41.238281 11.097656-10.605469 28.097656-12 40.777343-3.347656zm-217.347656 44.585937c-.125-45.472656 36.46875-82.519531 81.9375-82.964843 45.46875-.441407 82.777344 35.886718 83.539063 81.351562-9.121094-8.421875-15.914063-19.0625-19.71875-30.882812-.996094-3.953126-4.289063-6.910157-8.328125-7.476563-4.039063-.570313-8.019532 1.367187-10.070313 4.890625-16.261719 28.085938-43.390625 43.914062-81.074219 47.039062-15.472656 1.195313-31.03125.363282-46.285156-2.472656zm0 63.441407v-33.640626c10.816406 1.796876 21.761719 2.703126 32.722656 2.707032 4.675782 0 9.445313-.167969 14.472657-.566406 37.019531-2.941407 66.40625-17.195313 86.5625-41.527344 7.597656 13.320312 18.316406 24.59375 31.242187 32.847656v40.179688c0 45.730468-36.773437 82.933593-82.5 82.933593-45.730468 0-82.5-37.199219-82.5-82.933593zm73 187.535156h-119v-12.210938c0-29.492187 23.679688-53.789062 53.167969-53.789062h39.269531l26.5625 33.226562zm-11.066406-78.332032 1.628906-8.015624c13.757813 2.5625 27.894532 2.300781 41.550782-.769532l1.621093 8.511719-23.324219 26.75zm153.066406 78.332032h-122v-32.570313l29.007813-33.429687h39.730469c29.488281 0 53.261718 24.296875 53.261718 53.789062zm59.269532-218.050782c.015624-.03125.03125.15625.046874.125 2.054688-3.816406 6.070313-6.160156 10.398438-6.074218h44.773438c14.984374 0 27.699218 9 31.964843 23h-76.738281c-6.480469.003906-11.738281-5.238282-11.746094-11.71875 0-1.855469.445313-3.683594 1.300782-5.332032zm-34.269532 27.929688c0-3.132812 3.183594-14.402344 13.265625-19.488281.917969 9.074219 5.683594 17.316406 13.089844 22.640625-7.488281 6.355468-16.628906 10.453125-26.355469 11.808594zm0 63.136719v-28.117188c2.753906-.28125 5.496094-.703125 8.207032-1.265625-1.925782 1.824219-3.074219 4.316406-3.207032 6.964844v2.730469c0 11.597656 9.402344 21 21 21s21-9.402344 21-21v-2.730469c0-5.523438-4.480468-10-10-10-5.523437 0-10 4.476562-10 10v2.730469c0 .550781-.449218 1-1 1-.554687 0-1-.449219-1-1v-2.730469c.097656-4.585938-2.988281-8.628906-7.4375-9.746094 12.019532-4.367187 22.621094-11.921875 30.675782-21.851562h59.761718v54.015625c0 29.824219-24.179687 54-54 54-29.824218 0-54-24.175781-54-54zm45 126.984375h-50v-12.210938c.039063-9.515625-1.746094-18.949218-5.261718-27.789062h34.839843l20.421875 16.582031zm-5.300781-53.5.261719-.824219c9.910156 1.886719 20.109375 1.707031 29.949218-.527344l.382813 1.292969-15.285156 12.480469zm102.300781 53.5h-77v-23.4375l20.332032-16.5625h22.886718c18.613282.007812 33.714844 15.0625 33.78125 33.675781zm0 0" data-original="#000000" class="active-path" data-old_color="#0080ff" fill="#0080ff"/><path d="m387.003906 344.707031c11.5625-.003906 20.945313-9.351562 21-20.914062v-2.730469c0-5.523438-4.480468-10-10-10-5.523437 0-10 4.476562-10 10v2.730469c0 .550781-.449218 1-1 1-.554687 0-1-.449219-1-1v-2.730469c0-5.523438-4.480468-10-10-10-5.523437 0-10 4.476562-10 10v2.730469c.050782 11.5625 9.4375 20.910156 21 20.914062zm0 0" data-original="#000000" class="active-path" data-old_color="#0080ff" fill="#0080ff"/><path d="m399.144531.152344c-53.660156 0-97.160156 43.503906-97.164062 97.164062 0 53.660156 43.503906 97.164063 97.164062 97.164063 53.660157 0 97.164063-43.5 97.164063-97.164063-.058594-53.632812-43.527344-97.101562-97.164063-97.164062zm0 174.328125c-42.613281 0-77.160156-34.546875-77.164062-77.164063 0-42.613281 34.546875-77.164062 77.164062-77.164062 42.617188 0 77.164063 34.546875 77.164063 77.164062-.046875 42.59375-34.566406 77.113282-77.164063 77.160156zm0 0" data-original="#000000" class="active-path" data-old_color="#0080ff" fill="#0080ff"/><path d="m433.066406 94.464844h-29.0625v-40.761719c0-5.523437-4.480468-10-10-10-5.523437 0-10 4.476563-10 10v50.882813c.152344 5.554687 4.742188 9.957031 10.296875 9.878906h38.769531c5.523438 0 10-4.480469 10-10 0-5.523438-4.476562-10-10-10zm0 0" data-original="#000000" class="active-path" data-old_color="#0080ff" fill="#0080ff"/></g> </svg>
